<?xml version="1.0" encoding="UTF-8"?><svg id="_レイヤー_2" xmlns="http://www.w3.org/2000/svg" viewBox="0 0 17.6 24.56"><defs><style>.cls-1{fill:#004c71;}</style></defs><g id="_レイヤー_1-2"><path class="cls-1" d="M16.09,24.56c-.59,0-1.15-.35-1.39-.92L5.56,2.1c-.33-.77.03-1.66.8-1.98.77-.33,1.66.03,1.98.8l9.14,21.54c.33.77-.03,1.66-.8,1.98-.19.08-.39.12-.59.12Z"/><path class="cls-1" d="M7.61,24.34c-.49,0-.97-.24-1.26-.67-1.12-1.68-2.13-3.42-3.11-5.1-.95-1.63-1.93-3.32-2.99-4.91-.46-.69-.28-1.63.42-2.1.69-.46,1.63-.28,2.1.42,1.11,1.67,2.12,3.4,3.09,5.07.95,1.64,1.93,3.33,3.01,4.94.46.69.28,1.63-.42,2.1-.26.17-.55.25-.84.25Z"/></g></svg>