<?xml version="1.0" encoding="UTF-8"?><svg id="_レイヤー_2" xmlns="http://www.w3.org/2000/svg" viewBox="0 0 246.96 59.4"><defs><style>.cls-1{fill:#004c71;}</style></defs><g id="_レイヤー_1-2"><path class="cls-1" d="M26.42,5.71s-.47,0-1.26-.02-1.61.05-2.45.23c-.83.2-1.58.33-2.23.37-.45.03-.94.09-1.46.19-.66.12-1.98.19-3.94.21-2.95.05-4.81.25-5.58.6-.77.36-1.19,1.09-1.29,2.2-.08.85-.24,1.79-.49,2.81-.76,3.05-1.14,5.07-1.14,6.08l.35.02c.73.05,2.2-.05,4.41-.3,2.21-.25,3.87-.49,4.96-.74,2.26-.54,3.98-.81,5.17-.81,1.93,0,2.9.52,2.9,1.55,0,1.27-.65,2.05-1.94,2.33-1.29.29-3.99.65-8.08,1.1-5.01.56-7.68,1.06-8.01,1.5-.33.44-.68,1.86-1.06,4.26-.37,2.4-.56,3.93-.56,4.59v.26c.08.77.57,1.21,1.48,1.32l.42.02c.85.05,1.86-.02,3.04-.21l4.45-.65c1.65-.23,3.33-.5,5.03-.81,2.12-.45,3.46-.67,4.04-.67.43,0,.92.18,1.45.55.53.36.8.94.8,1.73,0,.57-.14.97-.42,1.18-1.58.7-3.61,1.08-6.1,1.16-2.15.08-5.51.44-10.07,1.09-2.3.34-3.82.51-4.55.51-1.81,0-2.94-.14-3.4-.43-.46-.29-.73-.99-.82-2.1l-.09-.79v-.09c0-.25.14-.75.42-1.51.39-1.1.84-3.19,1.36-6.26.52-3.08.85-5.51,1.01-7.31.08-.62.2-1.37.37-2.25.68-3.7,1.02-6.62,1.02-8.77,0-.11-.15-.39-.46-.86-.08-.09-.13-.17-.16-.23-.11-.36-.21-.65-.3-.88-.11-.22-.16-.47-.16-.77v-.23c0-.34.21-.64.63-.9.42-.26.82-.39,1.21-.39h.07c.65,0,1.39.05,2.23.14h.09c.36,0,2.07-.15,5.15-.44,3.08-.29,6.75-.8,11.02-1.53.45-.08.72-.12.81-.12l.35-.02c1.21-.08,2.04.04,2.49.36.46.32.74.93.85,1.84,0,.43-.2.85-.6,1.25s-.72.62-.95.65Z"/><path class="cls-1" d="M46.34,15.4c5.43-6.05,9.03-9.95,10.82-11.71,1.79-1.76,2.91-2.64,3.38-2.64s.94.24,1.48.73.81.98.81,1.47c0,.36-.75,1.2-2.25,2.53-1.92,1.73-4.4,4.19-7.45,7.36-3.05,3.18-4.57,4.99-4.57,5.44,0,.08.21.44.64,1.1.43.66,1.45,1.95,3.06,3.86,1.62,1.92,2.81,3.23,3.58,3.94.77.71,1.7,1.38,2.78,1.99.73.45,1.39,1.07,1.98,1.86.6.79.89,1.31.89,1.55,0,.4-.17.8-.51,1.19-.34.39-.77.59-1.28.59-1.36,0-2.82-.72-4.38-2.17-1.56-1.45-4.1-4.42-7.61-8.92-.71-.91-1.38-1.75-1.99-2.51-.43.46-.99,1.04-1.67,1.74-5.83,5.97-9.04,9.8-9.63,11.51-.57,1.73-1.12,2.88-1.65,3.43-.53.56-1.35.83-2.48.83s-1.74-.6-1.74-1.81c0-2.24,4.33-7.75,12.99-16.52,1.24-1.24,1.86-1.94,1.86-2.11,0-.2-.52-1-1.55-2.39-5.4-7.11-8.09-11.05-8.09-11.81,0-.68.19-1.34.58-1.98.39-.64.78-.96,1.18-.96.99,0,1.93.9,2.83,2.71,1.69,3.43,4.35,7.32,7.98,11.67Z"/><path class="cls-1" d="M100.76,8.28c-1.53,1.7-3.9,4.74-7.1,9.12-3.2,4.36-5.45,7.17-6.75,8.42s-2.37,1.88-3.2,1.88c-.63,0-1.25-.48-1.86-1.43-.6-.95-1.38-2.87-2.34-5.76-1.98-5.89-3.22-9.29-3.73-10.18-.19.53-.39,1.38-.63,2.57-.5,2.51-1.15,5.56-1.97,9.16-1.59,6.91-2.5,11.49-2.71,13.73-.03.28-.28.58-.75.9-.47.32-.85.49-1.15.49-.56,0-1.07-.28-1.54-.84s-.71-1.1-.71-1.62c0-1.36.45-3.73,1.35-7.12l2.02-7.61c1.24-4.79,2-8.32,2.3-10.58.29-2.26.44-4.04.44-5.34s1.06-2.02,3.18-2.02c.45,0,.92.39,1.41,1.17.49.78.82,1.47.97,2.05.2.59.44,1.25.72,1.97l3.11,8.7c1.22,3.56,1.98,5.56,2.26,6.02.29.46.52.68.71.68.79-.17,3.58-3.56,8.37-10.18,5.34-7.35,8.38-11.02,9.14-11.02.62,0,1.3.24,2.05.73.75.49,1.12.91,1.12,1.26,0,.15-.45,3.55-1.35,10.18-.32,2.46-.63,5.41-.9,8.85-.28,3.44-.42,5.38-.42,5.81,0,.79.14,1.67.42,2.64.25.87.37,1.56.37,2.09,0,.42-.08,1.02-.23,1.82-.15.8-.49,1.26-1.01,1.4-.52.14-.93.21-1.24.21-1.62,0-2.44-1.35-2.44-4.06,0-2.47.53-8.53,1.6-18.16.08-.77.12-1.25.12-1.44,0-.12.09-.64.28-1.55.14-.77.21-1.42.21-1.95s-.04-.85-.12-1.02Z"/><path class="cls-1" d="M131.17,2.44c.14.11.21.49.21,1.14s-.07,1.17-.21,1.51l.3.97c.51,1.82,1.01,3.32,1.51,4.5.62,1.58,1.23,3.27,1.83,5.08,1.38,4.16,2.81,7.72,4.3,10.68,1.49,2.96,2.86,5.05,4.09,6.25.77.76,1.26,1.28,1.45,1.57.19.29.29.62.29,1.01,0,.68-.23,1.26-.69,1.73-.46.47-1,.71-1.64.71-1.98,0-4.38-3.12-7.19-9.35-1.13-2.46-1.81-3.69-2.04-3.69-.74,0-2.34.22-4.79.67-2.45.45-4.69.97-6.72,1.58-1.16.36-1.89.53-2.2.53-.39,0-.79-.19-1.21-.58-.08-.06-.17-.09-.28-.09-.34,0-1.08,1.01-2.2,3.02-1.86,3.32-3.03,5.31-3.51,5.95s-1.02.96-1.61.96c-.42,0-.92-.24-1.51-.73-.59-.49-.88-.99-.88-1.5s.28-1.16.84-2.01c.56-.84,1.69-2.54,3.41-5.09,3.06-4.53,5.64-8.78,7.75-12.76,3.32-6.32,5.44-10.06,6.33-11.19.9-1.14,1.59-1.7,2.06-1.7,1.02,0,1.79.28,2.3.83ZM132.59,20.88c-.54-1.24-1.34-3.5-2.39-6.8-1.14-3.51-1.87-5.64-2.18-6.4-.85,1.79-2.17,4.34-3.94,7.63l-4.2,7.96c.32-.25,1.18-.45,2.57-.6,1.07-.11,1.99-.25,2.78-.42,4.22-.85,6.67-1.31,7.35-1.37Z"/><path class="cls-1" d="M146.57,7.42c-.17-.31-.26-.7-.26-1.16,0-.7.25-1.17.75-1.41s2.01-.39,4.51-.42c3.08-.02,5.84-.13,8.29-.34,2.45-.21,6.23-.66,11.33-1.36,1.93-.26,3.77-.39,5.52-.39.88,0,1.72.05,2.52.16.8.11,1.36.21,1.69.31s.6.38.8.83c.2.46.3.81.3,1.06,0,1.1-.39,1.65-1.16,1.65-.51,0-1.21-.05-2.09-.14-.9-.08-2.11-.12-3.64-.12s-3.49.11-5.74.34c-2.25.22-3.5.59-3.75,1.1s-.65,3.53-1.22,9.05c-.56,5.52-.85,9.63-.85,12.34,0,1.25.19,2.7.58,4.34.06.31.09.5.09.56,0,.68-.19,1.3-.56,1.84-.37.55-.82.82-1.35.82-.8,0-1.47-.39-2.01-1.16-.53-.77-.8-2.94-.8-6.49,0-3.37.64-9.95,1.93-19.74.06-.53.09-.8.09-.81,0-.53-.29-.79-.86-.79-.93,0-2.7.12-5.31.35-2.61.25-4.48.37-5.59.37-1.67,0-2.75-.26-3.25-.79Z"/><path class="cls-1" d="M204.89,28.62c.6,0,.91.37.91,1.11s-.86,1.88-2.57,3.32c-1.72,1.44-3.7,2.58-5.95,3.43-2.25.85-4.31,1.28-6.18,1.28-2.74,0-5.23-.9-7.48-2.71-2.25-1.81-3.37-4.43-3.37-7.86,0-6.26,2.69-12.36,8.08-18.29,5.39-5.93,10.58-8.9,15.58-8.9,1.87,0,3.37.58,4.49,1.73,1.12,1.15,1.68,2.49,1.68,4.02,0,1.42-.08,2.54-.24,3.36-.16.82-.65,1.51-1.47,2.08-.82.56-1.48.85-1.97.85-.36,0-.67-.15-.93-.46-.26-.31-.39-.73-.39-1.25,0-.36.13-1.1.39-2.23.26-1.11.39-1.94.39-2.48,0-1.58-.69-2.37-2.06-2.37-2.13,0-4.77,1.23-7.92,3.68-3.15,2.45-5.82,5.56-8.01,9.32-2.2,3.77-3.29,7.23-3.29,10.4,0,2.12.63,3.88,1.89,5.28,1.26,1.4,3.06,2.1,5.39,2.1,1.35,0,2.98-.34,4.91-1.01,1.93-.67,3.69-1.57,5.3-2.7,1.61-1.13,2.56-1.69,2.85-1.69Z"/><path class="cls-1" d="M244.74.16c.59,0,1.11.21,1.55.64.45.43.67.96.67,1.61,0,1.1-.34,3.5-1.02,7.21-.84,4.55-1.42,9.39-1.76,14.53-.34,5.14-.51,8.36-.51,9.66,0,.71-.32,1.42-.96,2.11s-1.2,1.04-1.68,1.04c-.51,0-.99-.21-1.44-.61-.45-.41-.67-.92-.67-1.54,0-.56.24-2.53.72-5.91.4-2.86.6-4.93.6-6.19,0-.74-.11-1.25-.32-1.53-.22-.28-.58-.42-1.09-.42-.77,0-2.29.09-4.55.26-2.44.2-3.97.3-4.57.3-.63,0-2.25.1-4.84.3-2.59.2-4.02.38-4.29.52-.27.15-.55,1.17-.84,3.06-.29,1.89-.46,3.47-.52,4.72-.08,2.15-.32,3.92-.73,5.32-.41,1.4-.94,2.1-1.59,2.1-.45,0-1-.35-1.66-1.06-.66-.7-.99-1.41-.99-2.12,0-.62.19-1.68.56-3.18.51-2.06,1.13-5.73,1.84-11.02.72-5.29,1.34-10.79,1.87-16.49.03-.37.24-.75.63-1.14s.8-.58,1.23-.58c1.52,0,2.27,1.09,2.27,3.27,0,1.28-.28,3.35-.84,6.19-.49,2.57-.74,4.42-.74,5.57,0,.48.15.83.46,1.04.31.22,1.04.32,2.2.32,2.54,0,5.95-.2,10.24-.61,4.29-.41,6.6-1,6.94-1.76.33-.77.67-2.51,1.02-5.22.35-2.71.52-5.55.52-8.5,0-.34.24-.74.72-1.21.48-.46,1-.7,1.55-.7Z"/><path class="cls-1" d="M1.26,56.3c0-.1.08-.73.23-1.88.15-1.15.3-2.48.44-4.01.14-1.52.23-2.37.27-2.55.04-.18.12-.32.25-.44s.32-.17.59-.17c.17,0,.32.07.45.21.13.14.2.3.2.47,0,.22-.05.58-.14,1.07-.13.68-.33,2.06-.58,4.15s-.38,3.26-.38,3.54c0,.18.03.3.08.36.05.06.15.1.3.1.24,0,.81-.07,1.7-.22.55-.09,1.6-.17,3.13-.25.28-.01.62-.07,1.02-.18.08-.02.13-.03.17-.03.19,0,.35.06.46.19.11.13.17.28.17.46,0,.29-.11.52-.34.69-.23.17-.48.26-.75.26-.11,0-.32-.02-.64-.05-.32-.03-.56-.04-.72-.04-1.67,0-3.28.26-4.83.78-.26.09-.5.13-.71.13-.23,0-.41-.1-.53-.3s-.19-.39-.19-.58c0-.11.05-.36.15-.74.11-.45.17-.78.2-.99Z"/><path class="cls-1" d="M12.96,58.84c-.7,0-1.28-.27-1.73-.8s-.68-1.19-.68-1.97c0-1.32.44-2.62,1.33-3.9.89-1.28,1.95-1.92,3.19-1.92.82,0,1.48.31,1.99.94.51.63.76,1.38.76,2.25,0,1.33-.53,2.56-1.58,3.7s-2.15,1.7-3.28,1.7ZM11.9,55.87c0,.52.11.94.33,1.27.22.33.51.49.86.49.76,0,1.53-.42,2.3-1.26s1.15-1.77,1.15-2.79c0-.63-.15-1.14-.44-1.53-.29-.39-.69-.59-1.19-.59-.82,0-1.53.51-2.12,1.52-.59,1.01-.89,1.97-.89,2.89Z"/><path class="cls-1" d="M21.09,58.55c.01-.3-.21-1.06-.65-2.3-.84-2.31-1.27-3.92-1.27-4.82,0-.72.24-1.08.72-1.08s.71.32.71.97c0,.53.02.93.05,1.22s.15.8.36,1.56c.21.76.44,1.45.69,2.1.13.34.22.6.28.78.11-.16.25-.39.41-.68.9-1.52,1.62-2.68,2.15-3.5.53-.82.97-1.42,1.31-1.79.34-.37.59-.6.74-.67.16-.07.32-.11.48-.11.2,0,.36.07.47.21.11.14.17.31.17.49,0,.24-.21.5-.63.78-.39.27-.98.93-1.74,2-.77,1.07-1.6,2.43-2.49,4.09-.46.84-.81,1.26-1.05,1.26-.22,0-.46-.17-.73-.51Z"/><path class="cls-1" d="M34.77,55.86c0,.52-.46,1.15-1.39,1.89s-1.88,1.11-2.86,1.11c-.82,0-1.46-.24-1.91-.73s-.67-1.16-.67-2.03c0-1.46.49-2.86,1.48-4.18.99-1.32,2.07-1.98,3.24-1.98.38,0,.7.13.94.38.24.25.36.55.36.91,0,.79-.39,1.54-1.16,2.26-.77.72-1.81,1.43-3.1,2.13-.27.14-.4.32-.4.54,0,.42.12.77.37,1.02.25.26.61.38,1.09.38,1.1,0,2.22-.61,3.37-1.83.17-.17.3-.25.38-.25.16,0,.25.13.25.39ZM29.43,54.66c2.17-1.29,3.25-2.33,3.25-3.11,0-.31-.14-.46-.41-.46-.47,0-1,.35-1.59,1.04-.59.69-1.01,1.54-1.25,2.53Z"/><path class="cls-1" d="M44.76,58.9c-.77,0-1.36-.22-1.77-.66-.41-.44-.62-1.06-.62-1.85,0-1.34.53-2.74,1.59-4.23,1.06-1.48,2.04-2.22,2.96-2.22.41,0,.77.22,1.07.67.3.45.45.92.45,1.42,0,.3-.07.56-.2.78-.13.22-.26.33-.4.33-.3,0-.51-.3-.63-.9-.14-.64-.34-.97-.6-.97-.53,0-1.16.63-1.89,1.9-.73,1.26-1.09,2.33-1.09,3.2s.49,1.31,1.48,1.31c.75,0,1.64-.35,2.66-1.06.36-.25.62-.38.79-.38s.26.1.26.3c0,.39-.46.88-1.37,1.47-.92.59-1.81.89-2.69.89Z"/><path class="cls-1" d="M52.87,58.84c-.7,0-1.28-.27-1.73-.8s-.68-1.19-.68-1.97c0-1.32.44-2.62,1.33-3.9.89-1.28,1.95-1.92,3.19-1.92.82,0,1.48.31,1.99.94.51.63.76,1.38.76,2.25,0,1.33-.53,2.56-1.58,3.7s-2.15,1.7-3.28,1.7ZM51.8,55.87c0,.52.11.94.33,1.27.22.33.51.49.86.49.76,0,1.53-.42,2.3-1.26s1.15-1.77,1.15-2.79c0-.63-.15-1.14-.44-1.53-.29-.39-.69-.59-1.19-.59-.82,0-1.53.51-2.12,1.52-.59,1.01-.89,1.97-.89,2.89Z"/><path class="cls-1" d="M65.31,52.39c-.48.01-1.49,1.42-3.06,4.23-.53.95-.83,1.46-.92,1.55-.09.08-.25.16-.48.23-.23.07-.43.1-.58.1-.34,0-.51-.67-.51-2,0-.75.16-2.11.48-4.08.13-.8.2-1.37.2-1.71s.15-.51.45-.51c.57,0,.85.41.85,1.23,0,.38-.1,1.14-.28,2.26-.22,1.28-.33,2.06-.34,2.33.32-.31.78-.98,1.4-2.02.87-1.42,1.51-2.32,1.92-2.71.41-.38.84-.57,1.28-.57.33,0,.6.22.79.67.2.45.32,1.51.36,3.19.01.42.05.73.12.94s.12.31.15.31c.24,0,.76-.82,1.57-2.46.43-.86.85-1.52,1.25-1.97.41-.45.86-.68,1.35-.68.41,0,.72.21.91.64.19.43.32,1.06.41,1.9.08.85.2,1.63.36,2.33s.46,1.16.89,1.36c.29.14.44.3.44.48s-.12.36-.37.55c-.25.19-.47.28-.68.28-.41,0-.78-.25-1.1-.75-.32-.5-.57-1.59-.73-3.26-.07-.67-.14-1.15-.21-1.43s-.17-.42-.31-.42c-.22,0-.47.2-.76.61-.29.41-.77,1.24-1.42,2.5-.51.98-.9,1.63-1.16,1.95-.26.33-.52.49-.76.49-.22,0-.42-.09-.59-.26-.17-.18-.28-.39-.33-.64-.05-.25-.09-.86-.15-1.83-.08-1.62-.22-2.56-.42-2.83Z"/><path class="cls-1" d="M81.48,52.39c-.48.01-1.49,1.42-3.06,4.23-.53.95-.83,1.46-.92,1.55-.09.08-.25.16-.48.23-.23.07-.43.1-.58.1-.34,0-.51-.67-.51-2,0-.75.16-2.11.48-4.08.13-.8.2-1.37.2-1.71s.15-.51.45-.51c.57,0,.85.41.85,1.23,0,.38-.1,1.14-.28,2.26-.22,1.28-.33,2.06-.34,2.33.32-.31.78-.98,1.4-2.02.87-1.42,1.51-2.32,1.92-2.71.41-.38.84-.57,1.28-.57.33,0,.6.22.79.67.2.45.32,1.51.36,3.19.01.42.05.73.12.94s.12.31.15.31c.24,0,.76-.82,1.57-2.46.43-.86.85-1.52,1.25-1.97.41-.45.86-.68,1.35-.68.41,0,.72.21.91.64.19.43.32,1.06.41,1.9.08.85.2,1.63.36,2.33s.46,1.16.89,1.36c.29.14.44.3.44.48s-.12.36-.37.55c-.25.19-.47.28-.68.28-.41,0-.78-.25-1.1-.75-.32-.5-.57-1.59-.73-3.26-.07-.67-.14-1.15-.21-1.43s-.17-.42-.31-.42c-.22,0-.47.2-.76.61-.29.41-.77,1.24-1.42,2.5-.51.98-.9,1.63-1.16,1.95-.26.33-.52.49-.76.49-.22,0-.42-.09-.59-.26-.17-.18-.28-.39-.33-.64-.05-.25-.09-.86-.15-1.83-.08-1.62-.22-2.56-.42-2.83Z"/><path class="cls-1" d="M97.26,55.12c-.66,1.1-1.33,1.95-2.01,2.56-.69.6-1.32.91-1.91.91-.34,0-.68-.2-1.03-.59s-.53-1-.53-1.82c0-.67.16-1.66.48-2.96.27-1.09.41-1.86.41-2.3.15-.31.38-.46.7-.46.21,0,.39.08.51.23.13.15.19.31.19.47,0,.36-.13.87-.38,1.53-.48,1.28-.71,2.39-.71,3.31,0,.84.19,1.26.58,1.26.5,0,1.13-.42,1.9-1.27.77-.84,1.43-2.02,1.97-3.53.21-.6.39-1,.53-1.18.14-.18.32-.27.55-.27.35,0,.52.23.52.69,0,.06-.05.24-.15.56-.31,1.12-.46,2.18-.46,3.18,0,1.2.2,1.97.59,2.33.2.19.31.34.31.46,0,.14-.1.27-.31.39-.21.12-.4.18-.56.18-.36,0-.65-.27-.87-.8-.22-.53-.33-1.32-.33-2.36v-.25c0-.08,0-.17,0-.25Z"/><path class="cls-1" d="M106.66,52.56c-.27,0-.56.17-.87.52-.31.35-.79,1.13-1.44,2.34-.85,1.63-1.4,2.55-1.65,2.78-.25.23-.45.34-.62.34-.6,0-.91-.29-.91-.88,0-.25.04-.59.12-1.04.28-1.55.42-3.18.42-4.89,0-.19.08-.41.25-.65.17-.24.32-.36.47-.36.27,0,.46.08.57.25s.17.49.17.99-.15,1.58-.46,3.19c-.1.53-.15.87-.15,1.01,0,.08.02.12.06.12.08,0,.43-.61,1.07-1.83.64-1.24,1.2-2.12,1.68-2.63.48-.51,1.01-.76,1.59-.76.46,0,.84.21,1.12.63.29.42.5,1.18.63,2.3.14,1.26.27,2.05.39,2.36.12.31.3.46.55.46.16,0,.36-.06.6-.17.04-.02.07-.03.09-.03.22,0,.33.13.33.38,0,.23-.15.46-.45.72-.3.25-.67.38-1.09.38s-.77-.17-1.01-.52c-.24-.35-.43-1.27-.56-2.77-.14-1.5-.45-2.26-.91-2.26Z"/><path class="cls-1" d="M113.32,56.76c0,.39.05.83.16,1.31.02.09.03.17.03.23,0,.09-.08.21-.25.36-.17.15-.35.22-.54.22-.5,0-.74-.46-.74-1.37s.19-2.43.58-4.47c.13-.71.2-1.15.2-1.31,0-.32.06-.6.18-.83.12-.23.28-.34.5-.34.26,0,.47.06.62.19.15.13.23.26.23.42s-.04.36-.11.61c-.38,1.35-.62,2.32-.71,2.9-.09.58-.14,1.28-.14,2.08ZM114.33,48.18c-.11,0-.19-.12-.25-.35-.02-.07-.05-.15-.08-.24-.14-.33-.21-.62-.21-.87,0-.2.12-.41.36-.63s.51-.32.81-.32c.15,0,.31.06.5.17.18.12.28.23.28.33,0,.17-.06.46-.19.86-.13.4-.33.68-.6.82-.27.14-.48.21-.63.21Z"/><path class="cls-1" d="M118.5,58.9c-.77,0-1.36-.22-1.77-.66-.41-.44-.62-1.06-.62-1.85,0-1.34.53-2.74,1.59-4.23,1.06-1.48,2.04-2.22,2.96-2.22.41,0,.77.22,1.07.67.3.45.45.92.45,1.42,0,.3-.07.56-.2.78-.13.22-.26.33-.4.33-.3,0-.51-.3-.63-.9-.14-.64-.34-.97-.6-.97-.53,0-1.16.63-1.89,1.9-.73,1.26-1.09,2.33-1.09,3.2s.49,1.31,1.48,1.31c.75,0,1.64-.35,2.66-1.06.36-.25.62-.38.79-.38s.26.1.26.3c0,.39-.46.88-1.37,1.47-.92.59-1.81.89-2.69.89Z"/><path class="cls-1" d="M129.54,55.67c-.72.96-1.43,1.68-2.13,2.17s-1.34.72-1.93.72c-.39,0-.73-.17-1.02-.5-.29-.33-.43-.76-.43-1.28,0-1.35.6-2.8,1.8-4.35s2.4-2.33,3.59-2.33c.43,0,.75.25.96.74.07.16.17.25.31.25.41,0,.61.16.61.48,0,.16-.03.38-.08.65-.28,1.51-.41,2.57-.41,3.19,0,1.24.24,1.98.71,2.23.23.12.34.27.34.45,0,.16-.11.32-.33.48-.22.16-.43.24-.64.24-.39,0-.72-.27-.97-.81-.26-.54-.38-1.32-.38-2.32ZM129.07,51.34c-.68,0-1.46.63-2.36,1.9-.9,1.27-1.34,2.32-1.34,3.15,0,.59.19.88.58.88.56,0,1.34-.57,2.34-1.7s1.5-2.18,1.5-3.13c0-.73-.24-1.1-.72-1.1Z"/><path class="cls-1" d="M136.72,50.71c.53-.04,1.02-.09,1.49-.15.46-.05.84-.08,1.15-.08.39,0,.63.04.74.11.1.07.15.2.15.38,0,.41-.29.64-.87.68-.74.05-1.43.11-2.05.19-.62.08-.96.15-1.01.2-.05.05-.2.66-.46,1.83-.26,1.16-.39,1.92-.39,2.27,0,.56.07.94.22,1.12.15.19.37.28.67.28.44,0,1.05-.33,1.83-.99.3-.27.53-.41.7-.41.22,0,.33.12.33.35,0,.37-.35.85-1.06,1.43-.71.59-1.43.88-2.18.88-1.24,0-1.86-.73-1.86-2.19,0-.53.13-1.34.38-2.45.25-1.1.38-1.76.38-1.98,0-.08-.06-.12-.18-.12l-.8.07c-.66,0-.98-.26-.98-.78,0-.3.15-.45.45-.45h1.58c.11,0,.2-.05.28-.15.08-.1.2-.42.36-.98s.3-1.1.42-1.65c.12-.54.36-.81.72-.81.22,0,.39.08.51.23.12.15.18.3.18.43,0,.07-.09.44-.28,1.1l-.45,1.61Z"/><path class="cls-1" d="M142.43,56.76c0,.39.05.83.16,1.31.02.09.03.17.03.23,0,.09-.08.21-.25.36-.17.15-.35.22-.54.22-.5,0-.74-.46-.74-1.37s.19-2.43.58-4.47c.13-.71.2-1.15.2-1.31,0-.32.06-.6.18-.83.12-.23.28-.34.5-.34.26,0,.47.06.62.19.15.13.23.26.23.42s-.04.36-.11.61c-.38,1.35-.62,2.32-.71,2.9-.09.58-.14,1.28-.14,2.08ZM143.44,48.18c-.11,0-.19-.12-.25-.35-.02-.07-.05-.15-.08-.24-.14-.33-.21-.62-.21-.87,0-.2.12-.41.36-.63s.51-.32.81-.32c.15,0,.31.06.5.17.18.12.28.23.28.33,0,.17-.06.46-.19.86-.13.4-.33.68-.6.82-.27.14-.48.21-.63.21Z"/><path class="cls-1" d="M147.75,58.84c-.7,0-1.28-.27-1.73-.8s-.68-1.19-.68-1.97c0-1.32.44-2.62,1.33-3.9.89-1.28,1.95-1.92,3.19-1.92.82,0,1.48.31,1.99.94.51.63.76,1.38.76,2.25,0,1.33-.53,2.56-1.58,3.7s-2.15,1.7-3.28,1.7ZM146.69,55.87c0,.52.11.94.33,1.27.22.33.51.49.86.49.76,0,1.53-.42,2.3-1.26s1.15-1.77,1.15-2.79c0-.63-.15-1.14-.44-1.53-.29-.39-.69-.59-1.19-.59-.82,0-1.53.51-2.12,1.52-.59,1.01-.89,1.97-.89,2.89Z"/><path class="cls-1" d="M159.63,52.56c-.27,0-.56.17-.87.52-.31.35-.79,1.13-1.44,2.34-.85,1.63-1.4,2.55-1.65,2.78-.25.23-.45.34-.62.34-.6,0-.91-.29-.91-.88,0-.25.04-.59.12-1.04.28-1.55.42-3.18.42-4.89,0-.19.08-.41.25-.65.17-.24.32-.36.47-.36.27,0,.46.08.57.25s.17.49.17.99-.15,1.58-.46,3.19c-.1.53-.15.87-.15,1.01,0,.08.02.12.06.12.08,0,.43-.61,1.07-1.83.64-1.24,1.2-2.12,1.68-2.63.48-.51,1.01-.76,1.59-.76.46,0,.84.21,1.12.63.29.42.5,1.18.63,2.3.14,1.26.27,2.05.39,2.36.12.31.3.46.55.46.16,0,.36-.06.6-.17.04-.02.07-.03.09-.03.22,0,.33.13.33.38,0,.23-.15.46-.45.72-.3.25-.67.38-1.09.38s-.77-.17-1.01-.52c-.24-.35-.43-1.27-.56-2.77-.14-1.5-.45-2.26-.91-2.26Z"/><path class="cls-1" d="M177.69,55.86c0,.52-.46,1.15-1.39,1.89s-1.88,1.11-2.86,1.11c-.82,0-1.46-.24-1.91-.73s-.67-1.16-.67-2.03c0-1.46.49-2.86,1.48-4.18.99-1.32,2.07-1.98,3.24-1.98.38,0,.7.13.94.38.24.25.36.55.36.91,0,.79-.39,1.54-1.16,2.26-.77.72-1.81,1.43-3.1,2.13-.27.14-.4.32-.4.54,0,.42.12.77.37,1.02.25.26.61.38,1.09.38,1.1,0,2.22-.61,3.37-1.83.17-.17.3-.25.38-.25.16,0,.25.13.25.39ZM172.35,54.66c2.17-1.29,3.25-2.33,3.25-3.11,0-.31-.14-.46-.41-.46-.47,0-1,.35-1.59,1.04-.59.69-1.01,1.54-1.25,2.53Z"/><path class="cls-1" d="M181.93,55.6c-1.17,1-1.94,2.01-2.31,3.03-.14.34-.29.59-.44.76-.61-.04-.91-.32-.91-.85,0-.78.87-1.97,2.62-3.56l.37-.35c-1.02-1.53-1.53-2.7-1.53-3.52,0-.73.31-1.09.92-1.09.17,0,.3.07.38.22.08.15.14.49.19,1.01.07.81.42,1.68,1.05,2.59,1.42-1.22,2.37-2.31,2.87-3.27.17-.31.3-.5.39-.58.09-.08.21-.12.37-.12.18,0,.36.07.52.21.16.14.24.33.24.55,0,.51-1.24,1.91-3.73,4.21.85,1.1,1.77,1.92,2.73,2.46.12.07.23.14.34.21.02.05.03.12.03.21,0,.22-.08.42-.24.59-.16.17-.35.26-.58.26-.69,0-1.78-.99-3.28-2.97Z"/><path class="cls-1" d="M189.86,58.9c-.77,0-1.36-.22-1.77-.66-.41-.44-.62-1.06-.62-1.85,0-1.34.53-2.74,1.59-4.23,1.06-1.48,2.04-2.22,2.96-2.22.41,0,.77.22,1.07.67.3.45.45.92.45,1.42,0,.3-.07.56-.2.78-.13.22-.26.33-.4.33-.3,0-.51-.3-.63-.9-.14-.64-.34-.97-.6-.97-.53,0-1.16.63-1.89,1.9-.73,1.26-1.09,2.33-1.09,3.2s.49,1.31,1.48,1.31c.75,0,1.64-.35,2.66-1.06.36-.25.62-.38.79-.38s.26.1.26.3c0,.39-.46.88-1.37,1.47-.92.59-1.81.89-2.69.89Z"/><path class="cls-1" d="M202.3,55.86c0,.52-.46,1.15-1.39,1.89s-1.88,1.11-2.86,1.11c-.82,0-1.46-.24-1.91-.73s-.67-1.16-.67-2.03c0-1.46.49-2.86,1.48-4.18.99-1.32,2.07-1.98,3.24-1.98.38,0,.7.13.94.38.24.25.36.55.36.91,0,.79-.39,1.54-1.16,2.26-.77.72-1.81,1.43-3.1,2.13-.27.14-.4.32-.4.54,0,.42.12.77.37,1.02.25.26.61.38,1.09.38,1.1,0,2.22-.61,3.37-1.83.17-.17.3-.25.38-.25.16,0,.25.13.25.39ZM196.96,54.66c2.17-1.29,3.25-2.33,3.25-3.11,0-.31-.14-.46-.41-.46-.47,0-1,.35-1.59,1.04-.59.69-1.01,1.54-1.25,2.53Z"/><path class="cls-1" d="M206.59,45.46c.37,0,.55.24.55.71,0,.42-.22,1.42-.67,2.99-.28.99-.5,2.09-.65,3.29-.15,1.2-.23,2.14-.23,2.82,0,.84.05,1.68.16,2.52.02.16.03.27.03.35,0,.26-.09.48-.26.66-.17.18-.36.28-.55.28-.27,0-.46-.17-.56-.51-.1-.34-.16-.88-.16-1.64,0-1.71.21-3.84.62-6.37.41-2.53.74-4.02.98-4.45s.49-.64.74-.64Z"/><path class="cls-1" d="M211.09,45.46c.37,0,.55.24.55.71,0,.42-.22,1.42-.67,2.99-.28.99-.5,2.09-.65,3.29-.15,1.2-.23,2.14-.23,2.82,0,.84.05,1.68.16,2.52.02.16.03.27.03.35,0,.26-.09.48-.26.66-.17.18-.36.28-.55.28-.27,0-.46-.17-.56-.51-.1-.34-.16-.88-.16-1.64,0-1.71.21-3.84.62-6.37.41-2.53.74-4.02.98-4.45s.49-.64.74-.64Z"/><path class="cls-1" d="M219.47,55.86c0,.52-.46,1.15-1.39,1.89s-1.88,1.11-2.86,1.11c-.82,0-1.46-.24-1.91-.73s-.67-1.16-.67-2.03c0-1.46.49-2.86,1.48-4.18.99-1.32,2.07-1.98,3.24-1.98.38,0,.7.13.94.38.24.25.36.55.36.91,0,.79-.39,1.54-1.16,2.26-.77.72-1.81,1.43-3.1,2.13-.27.14-.4.32-.4.54,0,.42.12.77.37,1.02.25.26.61.38,1.09.38,1.1,0,2.22-.61,3.37-1.83.17-.17.3-.25.38-.25.16,0,.25.13.25.39ZM214.14,54.66c2.17-1.29,3.25-2.33,3.25-3.11,0-.31-.14-.46-.41-.46-.47,0-1,.35-1.59,1.04-.59.69-1.01,1.54-1.25,2.53Z"/><path class="cls-1" d="M226.31,52.56c-.27,0-.56.17-.87.52-.31.35-.79,1.13-1.44,2.34-.85,1.63-1.4,2.55-1.65,2.78-.25.23-.45.34-.62.34-.6,0-.91-.29-.91-.88,0-.25.04-.59.12-1.04.28-1.55.42-3.18.42-4.89,0-.19.08-.41.25-.65.17-.24.32-.36.47-.36.27,0,.46.08.57.25s.17.49.17.99-.15,1.58-.46,3.19c-.1.53-.15.87-.15,1.01,0,.08.02.12.06.12.08,0,.43-.61,1.07-1.83.64-1.24,1.2-2.12,1.68-2.63.48-.51,1.01-.76,1.59-.76.46,0,.84.21,1.12.63.29.42.5,1.18.63,2.3.14,1.26.27,2.05.39,2.36.12.31.3.46.55.46.16,0,.36-.06.6-.17.04-.02.07-.03.09-.03.22,0,.33.13.33.38,0,.23-.15.46-.45.72-.3.25-.67.38-1.09.38s-.77-.17-1.01-.52c-.24-.35-.43-1.27-.56-2.77-.14-1.5-.45-2.26-.91-2.26Z"/><path class="cls-1" d="M233.6,58.9c-.77,0-1.36-.22-1.77-.66-.41-.44-.62-1.06-.62-1.85,0-1.34.53-2.74,1.59-4.23,1.06-1.48,2.04-2.22,2.96-2.22.41,0,.77.22,1.07.67.3.45.45.92.45,1.42,0,.3-.07.56-.2.78-.13.22-.26.33-.4.33-.3,0-.51-.3-.63-.9-.14-.64-.34-.97-.6-.97-.53,0-1.16.63-1.89,1.9-.73,1.26-1.09,2.33-1.09,3.2s.49,1.31,1.48,1.31c.75,0,1.64-.35,2.66-1.06.36-.25.62-.38.79-.38s.26.1.26.3c0,.39-.46.88-1.37,1.47-.92.59-1.81.89-2.69.89Z"/><path class="cls-1" d="M246.04,55.86c0,.52-.46,1.15-1.39,1.89s-1.88,1.11-2.86,1.11c-.82,0-1.46-.24-1.91-.73s-.67-1.16-.67-2.03c0-1.46.49-2.86,1.48-4.18.99-1.32,2.07-1.98,3.24-1.98.38,0,.7.13.94.38.24.25.36.55.36.91,0,.79-.39,1.54-1.16,2.26-.77.72-1.81,1.43-3.1,2.13-.27.14-.4.32-.4.54,0,.42.12.77.37,1.02.25.26.61.38,1.09.38,1.1,0,2.22-.61,3.37-1.83.17-.17.3-.25.38-.25.16,0,.25.13.25.39ZM240.71,54.66c2.17-1.29,3.25-2.33,3.25-3.11,0-.31-.14-.46-.41-.46-.47,0-1,.35-1.59,1.04-.59.69-1.01,1.54-1.25,2.53Z"/></g></svg>