<?xml version="1.0" encoding="UTF-8"?><svg id="_レイヤー_2" xmlns="http://www.w3.org/2000/svg" viewBox="0 0 154.57 36.1"><defs><style>.cls-1{fill:#fff;}</style></defs><g id="_レイヤー_1-2"><path class="cls-1" d="M0,29.47v-.41c3.17-.45,5.07-.87,5.15-6.18.04-2.27.12-4.99.12-7.91,0-3.21,0-5.44-.04-8.2C5.15,1.69,3.38,1.52.82,1.07v-.37h13.39v.37c-1.48.33-4,.49-4.33,3.67-.37,3.75-.29,5.44-.29,8.74s.04,6.43.08,8.49c.04,1.98,0,3.71,1.32,5.03,1.48,1.48,3.67,1.85,5.69,1.85,5.07,0,7.87-3.01,8.86-8.16h.49l-.25,8.78H0Z"/><path class="cls-1" d="M53.17,20.77c-.16,3.5-2.72,9.36-10.84,9.36-9.97,0-15.13-6.1-15.13-14.26C27.2,5.93,33.63.04,42.57.04c4.45,0,6.84,1.48,7.71,1.48.66,0,1.11-.54,1.4-1.15h.41l.37,9.52h-.45c-2.27-6.84-5.89-9.23-9.44-9.23-5.28,0-10.14,5.69-10.14,14.38,0,8.12,3.87,13.68,10.59,13.68,5.98,0,8.78-3.46,9.48-8.08l.66.12Z"/><path class="cls-1" d="M54.69,29.47v-.41c3.67-.87,4.49-.91,4.7-5.81.08-2.39.08-5.36.08-8.28,0-2.55,0-5.03-.04-7.34-.08-5.73-.78-5.98-4.41-6.55v-.37h13.48v.37c-1.48.33-4.08.41-4.41,3.59-.37,3.75-.29,9.36-.29,10.43,0,3.42-.04,6.68.04,8.41.21,4.9,1.73,5.07,4.62,5.56v.41h-13.77Z"/><path class="cls-1" d="M104.39,26.29c.04.29.04.95.04,1.36,0,5.44-3.92,8.45-7.83,8.45-5.07,0-7.95-3.42-9.11-5.07-.25-.33-.45-.62-.66-.91h-.87c-7.13,0-14.96-5.65-14.96-15,0-8.57,6.88-15.12,15.37-15.12,9.81,0,15.37,8,15.37,14.84s-4,12.36-10.26,14.51c1.52,1.44,3.09,2.76,6.02,2.76,3.71,0,6.43-2.47,6.43-5.81h.45ZM96.52,14.92c0-6.47-3.26-14.34-10.14-14.34-5.48,0-10.18,5.65-10.18,14.47,0,4.45,1.28,8.82,3.75,11.66.66-.45,2.14-1.36,4.53-1.36,3.01,0,4.57,1.65,6.18,3.21,4.37-2.84,5.85-8.41,5.85-13.64ZM82.34,26.58c-1.11,0-1.52.29-2.02.54,1.44,1.53,3.54,2.47,5.89,2.47h.37c-1.03-1.48-2.18-3.01-4.25-3.01Z"/><path class="cls-1" d="M113.99,15.54c.63.15,1.04.19,1.67.19h3.25c.4-.59.55-.76,1.01-1.33q.87.7,1.82,1.48c.08.08.11.15.11.19,0,.08-.11.15-.27.15h-5.92c-.55,0-.89.02-1.52.13l-.15-.8ZM114.64,12.77c.78.13,1.12.17,1.56.17h2.24c.34-.38.68-.78,1.01-1.21.74.59.95.78,1.67,1.4.04.06.08.13.08.17,0,.08-.08.13-.23.13h-4.63c-.44,0-.8.02-1.54.11l-.17-.76ZM114.71,21.22c.55.13,1.06.17,1.65.17h1.99c.38-.42.74-.8,1.08-1.2.66.57.85.74,1.44,1.33.08.08.15.19.15.23,0,.08-.08.13-.23.13h-4.42c-.55,0-.85.02-1.5.08l-.15-.74ZM114.83,18.39c.55.11,1.1.17,1.52.17h1.9c.49-.53.63-.7,1.1-1.2.74.57.97.76,1.61,1.39.06.06.08.13.08.17,0,.06-.08.13-.19.13h-4.5c-.44,0-.76.02-1.37.11l-.15-.76ZM116.21,30.21c0,.27-.23.36-.93.36-.3,0-.42-.08-.42-.27.02-1.01.04-1.78.04-2.79,0-1.48-.02-3.7-.04-4.37.7.44.91.59,1.56,1.1h2.49c.36-.4.47-.53.8-.91.51.38.66.51,1.14.91.15.13.21.19.21.27,0,.11-.08.19-.61.55v4.8c-.02.17-.06.23-.15.28-.13.06-.53.11-.82.11-.25,0-.38-.08-.38-.25v-.82h-2.9v1.06ZM116.21,28.66h2.9v-3.95h-2.9v3.95ZM120.46,19.81c1.63-1.44,2.6-2.56,3.61-4.23.89-1.42,1.52-2.81,1.82-3.99.49.11.91.21,1.14.25.87.21,1.1.32,1.1.49s-.13.23-.63.32c.76,1.54,1.61,2.58,2.98,3.66,1.06.84,1.97,1.29,3.47,1.77l-.08.3c-.72.11-1.14.49-1.44,1.31-1.35-.89-2.24-1.71-3.23-3.02-.76-1.01-1.25-1.9-2.05-3.72-1.4,2.45-1.99,3.32-3.25,4.54-1.14,1.12-1.94,1.75-3.21,2.56l-.21-.23ZM120.73,29.83c2.58-.8,4.31-1.67,6.38-3.17,1.84-1.33,3.32-2.75,4.1-3.91,1.48.7,1.94.97,1.94,1.14,0,.08-.19.27-.27.25q-.13-.02-.15-.02c-.23,0-.27,0-.51-.02-2.3,2.2-4.04,3.42-6.38,4.5-1.33.59-2.32.91-4.99,1.59l-.13-.36ZM121.7,22.32c1.59-1.01,2.68-1.88,3.93-3.17.74-.72,1.16-1.23,1.63-1.92.36.19.66.34.82.44.78.38.95.51.95.66s-.23.23-.7.23h-.21c-2.41,2.05-3.61,2.83-6.23,4.08l-.19-.32ZM121.7,25.77c2.32-1.18,3.91-2.22,5.43-3.53.95-.82,1.44-1.35,2.07-2.26,1.16.53,1.84.93,1.84,1.1,0,.15-.17.23-.44.23h-.51c-2.75,2.45-4.63,3.53-8.2,4.78l-.19-.32Z"/><path class="cls-1" d="M152.03,24.44q.04,4.52.11,5.62c0,.15-.04.21-.13.25-.15.06-.74.13-1.14.13-.27,0-.38-.08-.38-.3.02-.4.04-2.28.08-5.64v-5.81h-2.73c-.11,2.54-.3,4.23-.66,5.62-.46,1.78-1.16,3.17-2.18,4.33-.51.59-.89.91-1.77,1.5l-.21-.25c.93-.91,1.35-1.42,1.9-2.43h-7.54v1.54c-.02.15-.04.23-.13.27s-.7.11-1.12.11c-.15,0-.21-.08-.23-.25.06-1.54.08-4.35.08-8.5,0-5.73-.02-7.48-.13-8.45,1.5.15,2.28.34,2.28.55,0,.17-.17.3-.76.53v13.72h4.99c.42-.53.55-.68.95-1.2.76.63.95.8,1.71,1.5,1.12-2.22,1.48-4.75,1.48-10.21,0-.91,0-1.06-.04-3.57v-.7c.8.36,1.04.46,1.8.93,1.18-.34,2.6-1.08,3.99-2.07l.3-.21c1.14.74,1.73,1.21,1.73,1.35,0,.11-.13.19-.25.19h-.02q-.15-.02-.82-.06c-1.67.63-3.47,1.08-5.28,1.33v1.14c0,.82-.02,1.78-.04,2.81h3.83c.44-.59.57-.76,1.01-1.35.61.53,1.2,1.04,1.8,1.54.04.06.06.11.06.17s-.08.13-.19.13h-2.35v5.75ZM139.46,19c-.11,0-.57.02-1.39.08l-.13-.76c.51.13,1.06.19,1.63.19h1.37c0-.68,0-1.21.02-1.54v-1.08c0-1.52-.06-3.72-.13-4.33,1.71.21,2.01.3,2.01.49q0,.13-.72.49c-.02,2.18-.02,2.43-.02,3.51v2.47h1.37c.4-.55.53-.72.91-1.27.63.66.82.87,1.46,1.58.02.04.04.08.04.11,0,.04-.04.06-.17.06h-3.61v.99c2.54,1.08,2.98,1.42,2.98,2.18,0,.57-.21,1.01-.49,1.01-.15,0-.27-.15-.7-.78-.44-.66-1.27-1.56-1.8-1.99l.04,4.67v.72c0,.06-.04.13-.13.15-.13.06-.7.15-.93.15-.17,0-.23-.04-.25-.19q.11-3.49.11-5.43c-.72,1.46-1.42,2.37-3.11,4.04l-.3-.23c.91-1.12,1.39-1.88,2.18-3.47.4-.78.53-1.1.78-1.82h-1.04ZM138.26,13.64c.61.51,1.12,1.06,1.59,1.71.23.34.34.61.34.87,0,.53-.42,1.29-.72,1.29-.15,0-.21-.08-.3-.44-.38-1.54-.61-2.2-1.14-3.28l.23-.15ZM142.61,17.67c.82-2.32,1.01-2.98,1.35-4.42,1.29.42,1.86.68,1.86.85,0,.19-.21.27-.78.32q-.27.4-1.04,1.65c-.46.74-.7,1.08-1.2,1.69l-.19-.08Z"/></g></svg>